Coordinates
version=1
nRows=10
nColumns=40
inDegrees=yes

Units are S.I. units (second, meters, Newtons, ...)
If the header above contains a line with 'inDegrees', this indicates whether rotational values are in degrees (yes) or radians (no).

endheader
time	pelvis_tilt	pelvis_list	pelvis_rotation	pelvis_tx	pelvis_ty	pelvis_tz	hip_flexion_r	hip_adduction_r	hip_rotation_r	knee_angle_r	knee_angle_r_beta	ankle_angle_r	subtalar_angle_r	mtp_angle_r	hip_flexion_l	hip_adduction_l	hip_rotation_l	knee_angle_l	knee_angle_l_beta	ankle_angle_l	subtalar_angle_l	mtp_angle_l	lumbar_extension	lumbar_bending	lumbar_rotation	arm_flex_r	arm_add_r	arm_rot_r	elbow_flex_r	pro_sup_r	wrist_flex_r	wrist_dev_r	arm_flex_l	arm_add_l	arm_rot_l	elbow_flex_l	pro_sup_l	wrist_flex_l	wrist_dev_l
      1.75000000	      8.88525578	     -5.71977048	     -2.56520516	     -0.25320561	      1.05642387	     -1.00889828	      1.01070941	     -3.26998973	     -2.31757166	     72.47153461	      1.26486689	    -19.73717903	      0.00000000	      0.00000000	     -2.02789885	     -2.14783298	    -12.21517152	     21.84767458	      0.38131386	      0.26760548	      0.00000000	      0.00000000	    -11.95876745	     -0.45805141	      8.42550671	     82.50107135	    -23.86161151	     48.36818167	     35.37940945	     86.62003358	      0.00000000	      0.00000000	     88.12570839	    -24.30430516	     58.49748802	     49.77940049	     81.20697785	      0.00000000	      0.00000000
      1.75500000	      8.88296285	     -5.69516414	     -2.55388123	     -0.25318477	      1.05636803	     -1.00889368	      1.01438062	     -3.30607758	     -2.33948140	     72.49723939	      1.26531553	    -19.67625835	      0.00000000	      0.00000000	     -2.00538502	     -2.13958166	    -12.27198648	     21.88183088	      0.38191000	      0.23647019	      0.00000000	      0.00000000	    -11.95808504	     -0.48596323	      8.37180893	     82.46993089	    -23.77511075	     48.15357761	     35.32557371	     86.68023330	      0.00000000	      0.00000000	     88.15658075	    -24.36824947	     58.60119261	     49.81936772	     80.47495699	      0.00000000	      0.00000000
      1.76000000	      8.84965191	     -5.67352213	     -2.54554033	     -0.25328033	      1.05618512	     -1.00895424	      1.07023569	     -3.35284343	     -2.37463038	     72.55525380	      1.26632807	    -19.57055432	      0.00000000	      0.00000000	     -1.92078496	     -2.12766962	    -12.25843750	     21.97361938	      0.38351201	      0.33749670	      0.00000000	      0.00000000	    -11.93278148	     -0.52929573	      8.39816576	     82.54885320	    -23.96681195	     48.81752547	     35.49469698	     85.05325148	      0.00000000	      0.00000000	     88.34549405	    -24.32686170	     59.20008328	     49.78750001	     78.53717774	      0.00000000	      0.00000000
      1.76500000	      8.87289166	     -5.69009903	     -2.50429506	     -0.25327491	      1.05619187	     -1.00904858	      1.02203753	     -3.36246394	     -2.44079204	     72.51081471	      1.26555246	    -19.62255014	      0.00000000	      0.00000000	     -1.93071148	     -2.15110930	    -12.19466727	     22.00283639	      0.38402194	      0.35642055	      0.00000000	      0.00000000	    -11.95741200	     -0.47724831	      8.33458012	     82.63848379	    -23.86547449	     48.73633221	     35.30267411	     86.57668897	      0.00000000	      0.00000000	     88.15909838	    -24.30045839	     58.48445441	     49.72899268	     80.75630543	      0.00000000	      0.00000000
      1.77000000	      8.88558897	     -5.69535721	     -2.48678979	     -0.25326889	      1.05620200	     -1.00904496	      1.00259044	     -3.36466033	     -2.46052307	     72.50557508	      1.26546101	    -19.66709382	      0.00000000	      0.00000000	     -1.93485892	     -2.16879809	    -12.22435451	     22.01448414	      0.38422523	      0.32580302	      0.00000000	      0.00000000	    -11.97446485	     -0.50246458	      8.36354534	     82.48227596	    -23.91185357	     48.19341400	     35.43463935	     86.46719712	      0.00000000	      0.00000000	     88.21397157	    -24.20411201	     58.46623813	     49.60238595	     82.55999649	      0.00000000	      0.00000000
      1.77500000	      8.91351764	     -5.67144721	     -2.48542541	     -0.25325417	      1.05617897	     -1.00905546	      0.96708331	     -3.40449136	     -2.47298047	     72.50474402	      1.26544651	    -19.71692158	      0.00000000	      0.00000000	     -1.96963145	     -2.13761816	    -12.19479003	     21.99381782	      0.38386454	      0.29390533	      0.00000000	      0.00000000	    -12.00892452	     -0.52829689	      8.33019757	     82.53115807	    -23.90102170	     48.32077151	     35.44487060	     86.44324193	      0.00000000	      0.00000000	     88.20572629	    -24.29361825	     58.49074715	     49.75486786	     81.99143307	      0.00000000	      0.00000000
      1.78000000	      8.88335035	     -5.69272977	     -2.47607260	     -0.25323367	      1.05606297	     -1.00904439	      0.99826266	     -3.39210770	     -2.48368096	     72.51001612	      1.26553852	    -19.67494946	      0.00000000	      0.00000000	     -1.90132852	     -2.18912078	    -12.26922340	     22.08893743	      0.38552469	      0.38486533	      0.00000000	      0.00000000	    -11.96843452	     -0.51213449	      8.34600312	     82.52270075	    -23.93392139	     48.31157072	     35.44921736	     86.42549119	      0.00000000	      0.00000000	     88.19938905	    -24.20799556	     58.38361801	     49.61820852	     82.81193304	      0.00000000	      0.00000000
      1.78500000	      8.88943635	     -5.67378229	     -2.46508132	     -0.25322184	      1.05602654	     -1.00909111	      0.98552137	     -3.44063332	     -2.52166021	     72.50555160	      1.26546060	    -19.66034942	      0.00000000	      0.00000000	     -1.90049633	     -2.16861734	    -12.23295943	     22.10392236	      0.38578622	      0.40554544	      0.00000000	      0.00000000	    -11.98073285	     -0.54851057	      8.38377378	     82.50318094	    -24.03116437	     48.23866649	     35.53524370	     86.47256825	      0.00000000	      0.00000000	     88.22114350	    -24.11227892	     58.38359138	     49.56144327	     82.51764794	      0.00000000	      0.00000000
      1.79000000	      8.87122673	     -5.65499622	     -2.48140181	     -0.25324284	      1.05592506	     -1.00906393	      1.00991191	     -3.46735599	     -2.49971182	     72.52750063	      1.26584368	    -19.66879662	      0.00000000	      0.00000000	     -1.86981305	     -2.16201388	    -12.31801665	     22.11592644	      0.38599573	      0.39803119	      0.00000000	      0.00000000	    -11.95964462	     -0.56257638	      8.33020462	     82.53443040	    -23.92209587	     48.23473163	     35.46274863	     86.46455024	      0.00000000	      0.00000000	     88.22782856	    -24.22195329	     58.36970652	     49.64560369	     82.55939935	      0.00000000	      0.00000000
      1.79500000	      8.88201488	     -5.65722409	     -2.47082226	     -0.25322743	      1.05587211	     -1.00908071	      0.99152674	     -3.48310086	     -2.52127295	     72.52927439	      1.26587464	    -19.65791284	      0.00000000	      0.00000000	     -1.86724478	     -2.16970696	    -12.31126534	     22.15639316	      0.38670201	      0.42288743	      0.00000000	      0.00000000	    -11.97728433	     -0.56092183	      8.32962715	     82.56337306	    -23.92581822	     48.27166974	     35.40800775	     86.47741377	      0.00000000	      0.00000000	     88.21539330	    -24.21852525	     58.33286090	     49.69342410	     82.62139262	      0.00000000	      0.00000000
